<?xml version="1.0" encoding="utf-8"?>
<!-- Generator: Adobe Illustrator 28.1.0, SVG Export Plug-In . SVG Version: 6.00 Build 0)  -->
<svg version="1.1" id="Layer_1" xmlns="http://www.w3.org/2000/svg" xmlns:xlink="http://www.w3.org/1999/xlink" x="0px" y="0px"
	 viewBox="0 0 358 47" style="enable-background:new 0 0 358 47;" xml:space="preserve">
<style type="text/css">
	.st0{fill:#FFFFFF;}
	.st1{fill:#F6B350;}
</style>
<g id="Logo_00000173131527355653710900000015053094101018676126_">
	<path id="Legal_Mark" class="st0" d="M348.4,40.9h-1.9v-1h4.8v1h-1.9v4.9h-1V40.9z M352.2,39.9h1.1l1.8,2.8l1.8-2.8h1.1v5.9h-1
		v-4.2l-1.8,2.8h0l-1.8-2.7v4.2h-1V39.9z"/>
	<path id="Wordmark" class="st0" d="M92.4,14.5h11.1c6.8,0,11.3,2.9,11.3,9.5c0,4.3-2.6,7.8-6.5,9.1l7.7,12.7h-6.2l-7.3-12.1h-4.4
		v12.1h-5.6L92.4,14.5z M103.6,28.8c4.1,0,5.8-1.9,5.8-4.8c0-2.8-1.6-4.8-5.8-4.8h-5.5v9.6H103.6z M121.3,12.7
		c1.9,0,3.4,1.5,3.4,3.4c0,2-1.5,3.5-3.4,3.5s-3.5-1.5-3.5-3.5C117.8,14.2,119.4,12.7,121.3,12.7z M118.5,22.3h5.4v23.4h-5.4V33.3
		V22.3z M137,21.9c2.3,0,4.7,0.4,6.7,1.5v4.7h-0.1c-1.9-1.1-4.5-1.7-6.8-1.7c-2.3,0-4.4,0.3-4.4,2.2c0,0.9,0.4,1.6,2,2.3
		c1.6,0.7,4.1,1,6.5,2.2c3,1.5,3.8,3.4,3.8,6c0,4.2-3.8,7.3-9.2,7.3c-3.7,0-6.4-0.5-8.2-1.3v-5h0.1c1.7,0.9,4,1.6,7.7,1.6
		c2.8,0,4.2-0.8,4.2-2.5c0-0.9-0.3-1.7-2.3-2.5c-2.4-0.9-4.4-0.9-6.8-2.4c-2.3-1.4-3.1-3.2-3.1-5.6C127.3,24,131.5,21.9,137,21.9z
		 M162.1,31.3c0-1.2-0.1-2.2-0.5-2.9c-0.6-1.2-1.8-1.9-4.6-1.9c-2.9,0-5.8,0.7-7.9,1.6H149v-4.8c1.8-0.9,5-1.5,8.5-1.5
		c7,0,9.9,3,9.9,9.4c0,1.5-0.1,4.8-0.1,6.3c0,3,0,4.6,0.4,8.1v0.2h-5.1c-0.1-0.6-0.3-1.5-0.4-2.6c-1.5,2.2-3.9,3.1-7.4,3.1
		c-4.1,0-7.6-2.5-7.6-7C147.3,34.2,151.4,31.2,162.1,31.3z M156.6,42.2c4.9,0,5.4-4.3,5.5-6.8V35c-3.4,0-5.2,0.5-6.6,0.8
		c-1.5,0.4-2.6,1.5-2.6,3.2C152.9,41.1,154.3,42.2,156.6,42.2z M172.2,22.3h5.5v2.9c1.5-2.2,3.8-3.3,6.8-3.3c5.3,0,8,3,8,9.1v14.8
		H187V32.3c0-3.1-0.5-6-4.2-6c-3.4,0-5.2,2.4-5.2,7v12.4h-5.5V22.3z M194.7,22.3h3.7v-6.1h5.5v6.1h5v4.3h-5v11.9c0,2.3,0.6,3,2.4,3
		c0.8,0,1.3,0,2.4-0.2h0.1v4.3c-1.2,0.4-2.5,0.5-3.6,0.5c-4.8,0-6.8-2-6.8-7.1V26.6h-3.7V22.3z M222.9,14.5h5.6v13.1h12.7V14.5h5.6
		v31.3h-5.6V32.3h-12.7v13.4h-5.6V14.5z M261.3,21.9c3,0,5.5,1,7.1,2.5c2.3,2.2,3,5.9,3,9c0,0.6,0,1.4-0.1,2.2h-15.6
		c0.5,3.9,3.2,6.1,7.2,6.1c2.6,0,4.7-0.3,7.5-1.7l0,4.9c-1.3,0.6-4,1.4-8.3,1.4c-7.3,0-12-4.8-12-12.3
		C250.1,26.9,254.8,21.9,261.3,21.9z M266.3,31.4c-0.1-3-1.4-5.2-4.8-5.2c-2.3,0-5.1,1.4-5.7,5.2H266.3z M288.7,31.3
		c0-1.2-0.1-2.2-0.5-2.9c-0.6-1.2-1.8-1.9-4.6-1.9c-2.9,0-5.8,0.7-7.9,1.6h-0.1v-4.8c1.8-0.9,5-1.5,8.5-1.5c7,0,9.9,3,9.9,9.4
		c0,1.5-0.1,4.8-0.1,6.3c0,3,0.1,4.6,0.4,8.1v0.2h-5.1c-0.1-0.6-0.3-1.5-0.4-2.6c-1.5,2.2-3.9,3.1-7.4,3.1c-4.1,0-7.6-2.5-7.6-7
		C273.8,34.2,278,31.2,288.7,31.3z M283.1,42.2c4.9,0,5.4-4.3,5.5-6.8V35c-3.4,0-5.2,0.5-6.6,0.8c-1.5,0.4-2.6,1.5-2.6,3.2
		C279.4,41.1,280.8,42.2,283.1,42.2z M298.2,12.9h5.4v32.9h-5.4V26.6V12.9z M306.2,22.3h3.7v-6.1h5.5v6.1h5v4.3h-5v11.9
		c0,2.3,0.6,3,2.4,3c0.8,0,1.3,0,2.4-0.2h0.1v4.3c-1.2,0.4-2.5,0.5-3.6,0.5c-4.8,0-6.8-2-6.8-7.1V26.6h-3.7V22.3z M323.4,12.9h5.5
		v12.2c0.9-1.4,2.3-2.3,3.9-2.8c0.6-0.2,1.5-0.4,2.9-0.4c1.4,0,2.5,0.2,3.5,0.6c3,1.2,4.5,4,4.5,8.5v14.8h-5.4V32.3
		c0-3.1-0.5-6-4.2-6c-3.4,0-5.2,2.4-5.2,7v12.4h-5.5V12.9z"/>
	<g id="Symbol_00000116194630559940027460000000935816081474411711_">
		<path id="Left_Right" class="st0" d="M24,19.6c0,6-4.9,10.9-10.9,10.9S2.2,25.6,2.2,19.6S7.1,8.7,13.1,8.7S24,13.6,24,19.6
			 M0,45.6c0,0.1,0,0.1,0,0.2h31.5c1,0,1.3-1.3,0.5-1.8l-14.1-8.2C10.2,31.3,0.3,36.7,0,45.6 M54.4,19.6c0-6,4.9-10.9,10.9-10.9
			s10.9,4.9,10.9,10.9c0,6-4.9,10.9-10.9,10.9C59.3,30.5,54.4,25.6,54.4,19.6 M78.4,45.6c-0.3-8.9-10.1-14.2-17.9-9.8L46.4,44
			c-0.9,0.5-0.5,1.8,0.5,1.8h31.5C78.4,45.7,78.4,45.6,78.4,45.6"/>
		<path id="Center" class="st1" d="M50.1,11.6c0,6-4.9,10.9-10.9,10.9s-10.9-4.9-10.9-10.9S33.2,0.7,39.2,0.7
			C45.2,0.7,50.1,5.6,50.1,11.6 M56.1,35.9c-1.4-2.4-3.4-4.6-5.7-6.2L44,40.8c-0.5,0.9,0.5,1.8,1.3,1.3L56.1,35.9 M48.5,28.5
			c-2.5-1.3-5.3-2.1-8.2-2.3v13c0,1,1.3,1.3,1.8,0.5L48.5,28.5 M22.3,35.9l10.8,6.2c0.9,0.5,1.8-0.5,1.3-1.3L28,29.7
			C25.7,31.3,23.8,33.4,22.3,35.9 M29.9,28.5l6.4,11.1c0.5,0.9,1.8,0.5,1.8-0.5v-13C35.2,26.4,32.4,27.2,29.9,28.5"/>
	</g>
</g>
</svg>
