<?xml version="1.0" encoding="utf-8"?>
<!-- Generator: Adobe Illustrator 28.1.0, SVG Export Plug-In . SVG Version: 6.00 Build 0)  -->
<svg version="1.1" id="Layer_1" xmlns="http://www.w3.org/2000/svg" xmlns:xlink="http://www.w3.org/1999/xlink" x="0px" y="0px"
	 viewBox="0 0 103 52" style="enable-background:new 0 0 103 52;" xml:space="preserve">
<style type="text/css">
	.st0{fill:#FFFFFF;}
	.st1{fill:#F6B350;}
</style>
<g id="Logo">
	<path id="Legal_Mark" class="st0" d="M99.3,48.7h-0.7v-0.4h1.8v0.4h-0.7v1.9h-0.4V48.7z M100.8,48.4h0.4l0.7,1.1l0.7-1.1h0.4v2.3
		h-0.4V49l-0.7,1.1h0l-0.7-1.1v1.6h-0.4V48.4z"/>
	<path id="Wordmark" class="st0" d="M0,38.5h4.3c2.6,0,4.4,1.1,4.4,3.7c0,1.7-1,3-2.5,3.5l3,4.9H6.7l-2.8-4.7H2.2v4.7H0L0,38.5z
		 M4.3,44.1c1.6,0,2.2-0.7,2.2-1.9c0-1.1-0.6-1.9-2.2-1.9H2.2v3.7H4.3z M11.2,37.8c0.7,0,1.3,0.6,1.3,1.3c0,0.8-0.6,1.3-1.3,1.3
		c-0.7,0-1.3-0.6-1.3-1.3C9.8,38.4,10.4,37.8,11.2,37.8z M10.1,41.5h2.1v9.1l-2.1,0v-4.8V41.5z M17.3,41.4c0.9,0,1.8,0.1,2.6,0.6
		v1.8h0c-0.7-0.4-1.7-0.7-2.6-0.7c-0.9,0-1.7,0.1-1.7,0.8c0,0.3,0.2,0.6,0.8,0.9c0.6,0.3,1.6,0.4,2.5,0.8c1.2,0.6,1.5,1.3,1.5,2.3
		c0,1.6-1.5,2.8-3.6,2.8c-1.4,0-2.5-0.2-3.2-0.5v-1.9h0c0.7,0.4,1.6,0.6,3,0.6c1.1,0,1.6-0.3,1.6-1c0-0.4-0.1-0.7-0.9-1
		c-0.9-0.4-1.7-0.4-2.6-0.9c-0.9-0.5-1.2-1.3-1.2-2.2C13.5,42.2,15.2,41.4,17.3,41.4z M27,45c0-0.5-0.1-0.8-0.2-1.1
		c-0.2-0.5-0.7-0.7-1.8-0.7c-1.1,0-2.2,0.3-3.1,0.6h0v-1.9c0.7-0.3,1.9-0.6,3.3-0.6c2.7,0,3.8,1.2,3.8,3.6c0,0.6,0,1.9,0,2.4
		c0,1.2,0,1.8,0.2,3.1v0.1h-2c-0.1-0.2-0.1-0.6-0.1-1c-0.6,0.9-1.5,1.2-2.9,1.2c-1.6,0-3-1-3-2.7C21.3,46.1,22.9,45,27,45z
		 M24.9,49.2c1.9,0,2.1-1.7,2.1-2.6v-0.1c-1.3,0-2,0.2-2.6,0.3c-0.6,0.2-1,0.6-1,1.2C23.4,48.8,24,49.2,24.9,49.2z M30.9,41.5H33
		v1.1c0.6-0.8,1.5-1.3,2.6-1.3c2.1,0,3.1,1.2,3.1,3.5v5.7h-2.1v-5.2c0-1.2-0.2-2.3-1.6-2.3c-1.3,0-2,0.9-2,2.7v4.8h-2.1V41.5z
		 M39.7,41.5h1.4v-2.4h2.1v2.4h1.9v1.7h-1.9v4.6c0,0.9,0.2,1.2,0.9,1.2c0.3,0,0.5,0,0.9-0.1h0v1.7c-0.5,0.1-1,0.2-1.4,0.2
		c-1.9,0-2.7-0.8-2.7-2.7v-4.8h-1.4V41.5z M50.6,38.5h2.2v5.1h4.9v-5.1h2.2v12.1h-2.2v-5.2h-4.9v5.2h-2.2V38.5z M65.5,41.3
		c1.1,0,2.1,0.4,2.7,1c0.9,0.9,1.2,2.3,1.2,3.5c0,0.2,0,0.5,0,0.8h-6.1c0.2,1.5,1.2,2.4,2.8,2.4c1,0,1.8-0.1,2.9-0.7l0,1.9
		c-0.5,0.2-1.6,0.5-3.2,0.5c-2.8,0-4.6-1.9-4.6-4.8C61.2,43.3,63,41.3,65.5,41.3z M67.4,45.1c-0.1-1.2-0.5-2-1.9-2
		c-0.9,0-2,0.5-2.2,2H67.4z M76.1,45c0-0.5-0.1-0.8-0.2-1.1c-0.2-0.5-0.7-0.7-1.8-0.7c-1.1,0-2.2,0.3-3.1,0.6h0v-1.9
		c0.7-0.3,1.9-0.6,3.3-0.6c2.7,0,3.8,1.2,3.8,3.6c0,0.6,0,1.9,0,2.4c0,1.2,0.1,1.8,0.2,3.1v0.1h-2c-0.1-0.2-0.1-0.6-0.1-1
		c-0.6,0.9-1.5,1.2-2.9,1.2c-1.6,0-3-1-3-2.7C70.3,46.1,72,45,76.1,45z M74,49.2c1.9,0,2.1-1.7,2.1-2.6v-0.1c-1.3,0-2,0.2-2.6,0.3
		c-0.6,0.2-1,0.6-1,1.2C72.5,48.8,73.1,49.2,74,49.2z M79.8,37.9h2.1v12.7h-2.1v-7.4V37.9z M82.9,41.5h1.4v-2.4h2.1v2.4h1.9v1.7
		h-1.9v4.6c0,0.9,0.2,1.2,0.9,1.2c0.3,0,0.5,0,0.9-0.1h0v1.7c-0.5,0.1-1,0.2-1.4,0.2c-1.9,0-2.7-0.8-2.7-2.7v-4.8h-1.4V41.5z
		 M89.6,37.9h2.1v4.7c0.4-0.5,0.9-0.9,1.5-1.1c0.2-0.1,0.6-0.2,1.1-0.2c0.5,0,1,0.1,1.4,0.2c1.2,0.5,1.7,1.5,1.7,3.3v5.7h-2.1v-5.2
		c0-1.2-0.2-2.3-1.6-2.3c-1.3,0-2,0.9-2,2.7v4.8h-2.1V37.9z"/>
	<g id="Symbol_00000160904871148258502700000013609706679142766464_">
		<path id="Left_Right_00000109027970721299784540000017400109023705723566_" class="st0" d="M37.9,14.6c0,4.3-3.5,7.8-7.8,7.8
			s-7.8-3.5-7.8-7.8s3.5-7.8,7.8-7.8S37.9,10.3,37.9,14.6 M20.8,33.1c0,0,0,0.1,0,0.1h22.5c0.7,0,1-0.9,0.3-1.3l-10.1-5.8
			C28,23,21,26.8,20.8,33.1 M59.6,14.6c0-4.3,3.5-7.8,7.8-7.8s7.8,3.5,7.8,7.8s-3.5,7.8-7.8,7.8S59.6,18.9,59.6,14.6 M76.7,33.1
			c-0.2-6.4-7.2-10.1-12.7-7L53.9,32c-0.6,0.4-0.4,1.3,0.3,1.3h22.5C76.7,33.2,76.7,33.2,76.7,33.1"/>
		<path id="Center_00000047771961595983345010000013143382678146658728_" class="st1" d="M56.5,8.9c0,4.3-3.5,7.8-7.8,7.8
			S41,13.2,41,8.9s3.5-7.8,7.8-7.8S56.5,4.7,56.5,8.9 M60.8,26.2c-1-1.7-2.4-3.2-4.1-4.4l-4.6,7.9c-0.4,0.6,0.3,1.3,0.9,0.9
			L60.8,26.2 M55.4,21c-1.8-1-3.8-1.5-5.9-1.6v9.2c0,0.7,0.9,1,1.3,0.3L55.4,21 M36.7,26.2l7.7,4.4c0.6,0.4,1.3-0.3,0.9-0.9
			l-4.6-7.9C39.1,23,37.7,24.5,36.7,26.2 M42.1,21l4.6,7.9c0.4,0.6,1.3,0.4,1.3-0.3v-9.2C45.8,19.5,43.8,20,42.1,21"/>
	</g>
</g>
</svg>
